# xmcd
#
# Track frame offsets:
#	150
#	31506
#	69653
#	103997
#	130122
#	154780
#	187596
#
# Disc length: 3316 seconds
#
# Revision: 0
# Processed by: cddbd v1.5.2PL0 Copyright (c) Steve Scherf et al.
# Submitted via: audiograbber 1.83.01
#
DISCID=4f0cf207
DTITLE=Grateful Dead - 93-06-06 Giants Stadium, East Rutherford NJ
DYEAR=1900
DGENRE=
TTITLE0=Here Comes Sunshine
TTITLE1=New Minglewood Blues
TTITLE2=Ramble On Rose
TTITLE3=Broken Arrow
TTITLE4=When I Paint My Masterpiece
TTITLE5=Lazy River Road
TTITLE6=Let It Grow
EXTD=
EXTT0=
EXTT1=
EXTT2=
EXTT3=
EXTT4=
EXTT5=
EXTT6=
PLAYORDER=
